<!-- icon666.com - MILLIONS vector ICONS FREE --><svg id="Capa_1" enable-background="new 0 0 512 512" viewBox="0 0 512 512" xmlns="http://www.w3.org/2000/svg"><g><g><g><circle cx="256" cy="256" fill="#b1e4f9" r="248.5"/><path d="m309.21 498.79c-17.14 3.74-34.95 5.71-53.21 5.71-137.25 0-248.5-111.26-248.5-248.5s111.25-248.5 248.5-248.5c18.26 0 36.07 1.97 53.21 5.71-111.68 24.36-195.3 123.81-195.3 242.79s83.62 218.43 195.3 242.79z" fill="#90d8f9"/></g><path d="m401.386 328.309c-96.924 3.812-193.847 3.812-290.771 0-15.112-.594-27.816-11.669-30.331-26.583-5.141-30.484-5.141-60.968 0-91.452 2.515-14.913 15.219-25.988 30.331-26.583 96.924-3.812 193.847-3.812 290.771 0 15.112.594 27.816 11.669 30.331 26.583 5.141 30.484 5.141 60.968 0 91.451-2.516 14.914-15.219 25.989-30.331 26.584z" fill="#f4dd45"/></g><g><path d="m476.011 125.057c-2.121-3.558-6.727-4.72-10.283-2.598-3.558 2.122-4.721 6.726-2.598 10.283 20.883 35 32.483 74.872 33.75 115.757h-53.935c-.352-13.194-1.62-26.375-3.83-39.479-2.098-12.414-10.033-22.758-20.732-28.354-4.68-23.022-11.57-44.986-20.327-65.122 11.391-7.627 22.235-16.217 32.43-25.728 5.75 6.025 11.203 12.33 16.291 18.911 2.533 3.276 7.244 3.878 10.521 1.346 3.277-2.534 3.88-7.244 1.347-10.521-23.418-30.291-53.83-55.355-87.949-72.482-35.786-17.962-74.375-27.07-114.696-27.07-68.379 0-132.666 26.629-181.019 74.981-48.352 48.353-74.981 112.64-74.981 181.019s26.629 132.666 74.981 181.019c48.353 48.352 112.64 74.981 181.019 74.981s132.666-26.629 181.019-74.981c48.352-48.353 74.981-112.64 74.981-181.019 0-46.203-12.445-91.482-35.989-130.943zm-51.687 175.423c-1.913 11.325-11.684 19.877-23.229 20.335-79.927 3.14-160.931 3.681-240.76 1.606-4.176-.099-7.585 3.162-7.692 7.303-.108 4.141 3.161 7.584 7.302 7.692 29.4.764 58.951 1.158 88.556 1.217v14.975c-43.407 1.244-85.015 13.268-121.703 34.786-6.979-16.41-12.673-34.099-16.878-52.615.132.007.262.019.394.024 6.556.26 13.1.501 19.655.721 4.114.148 7.608-3.104 7.748-7.244.139-4.14-3.104-7.609-7.244-7.748-6.524-.219-13.039-.459-19.563-.718-11.549-.458-21.319-9.011-23.232-20.333-4.977-29.517-4.977-59.449 0-88.963 1.913-11.325 11.684-19.877 23.229-20.335 96.277-3.785 193.911-3.784 290.187 0 11.549.458 21.319 9.011 23.232 20.333 4.975 29.518 4.975 59.45-.002 88.964zm-175.824 196.231c-30.784-2.285-60.009-18.624-84.937-47.621-11.535-13.418-21.796-29.303-30.495-46.987 34.729-20.663 74.216-32.23 115.432-33.485zm15-128.093c41.215 1.255 80.702 12.822 115.432 33.485-8.699 17.684-18.96 33.569-30.495 46.987-24.927 28.997-54.152 45.336-84.937 47.621zm0-15.009v-14.97c46.131-.095 92.34-1.034 138.188-2.835.132-.005.262-.018.394-.024-4.206 18.516-9.899 36.206-16.878 52.615-36.689-21.518-78.297-33.542-121.704-34.786zm0-338.32c30.784 2.285 60.009 18.624 84.937 47.621 11.535 13.418 21.796 29.303 30.495 46.987-34.729 20.663-74.216 32.23-115.432 33.485zm-15 128.093c-41.215-1.255-80.702-12.822-115.432-33.485 8.699-17.684 18.96-33.569 30.495-46.987 24.927-28.997 54.152-45.336 84.937-47.621zm0 15.009v14.974c-46.175.092-92.334 1.029-138.188 2.831-.132.005-.262.018-.394.024 4.206-18.516 9.899-36.206 16.878-52.615 36.689 21.518 78.297 33.542 121.704 34.786zm153.582 17.829c-.133-.006-.264-.019-.397-.024-45.852-1.802-92.01-2.739-138.185-2.831v-14.974c43.407-1.244 85.015-13.268 121.703-34.786 6.979 16.41 12.673 34.099 16.879 52.615zm-38.117-135.743c20.259 10.169 39.124 23.317 55.832 38.792-8.894 8.255-18.31 15.765-28.17 22.504-9.104-18.231-19.803-34.668-31.815-48.641-8.479-9.863-17.443-18.403-26.802-25.582 10.536 3.562 20.866 7.863 30.955 12.927zm-211.777 12.655c-12.012 13.973-22.711 30.41-31.815 48.641-9.866-6.743-19.288-14.259-28.187-22.519 25.33-23.519 54.871-41.019 86.882-51.763-9.386 7.192-18.377 15.751-26.88 25.641zm-70.702 36.659c10.203 9.521 21.057 18.119 32.458 25.753-8.758 20.136-15.647 42.1-20.327 65.122-10.699 5.596-18.634 15.941-20.732 28.357-2.209 13.103-3.478 26.284-3.83 39.477h-53.928c1.811-59.609 25.163-115.508 66.359-158.709zm-66.359 173.709h53.928c.352 13.194 1.62 26.375 3.83 39.479 2.098 12.414 10.034 22.758 20.732 28.354 4.68 23.022 11.569 44.986 20.327 65.122-11.401 7.634-22.255 16.232-32.458 25.753-41.196-43.2-64.548-99.099-66.359-158.708zm77.06 169.246c8.899-8.26 18.32-15.775 28.187-22.519 9.104 18.231 19.803 34.668 31.815 48.641 8.502 9.89 17.493 18.449 26.88 25.641-32.011-10.745-61.552-28.244-86.882-51.763zm267.625 26.122c12.012-13.973 22.711-30.41 31.815-48.641 9.866 6.744 19.288 14.259 28.187 22.519-25.33 23.52-54.871 41.019-86.882 51.763 9.386-7.192 18.377-15.751 26.88-25.641zm70.702-36.659c-10.203-9.521-21.057-18.119-32.458-25.753 8.758-20.136 15.647-42.1 20.327-65.122 10.699-5.596 18.634-15.941 20.732-28.357 2.209-13.103 3.478-26.284 3.83-39.477h53.928c-1.811 59.609-25.163 115.508-66.359 158.709z"/><path d="m365.47 207.624c-.025 0-.05 0-.074 0-4.143.04-7.468 3.43-7.428 7.572l.568 58.694-43.42-62.875c-1.865-2.701-5.268-3.873-8.404-2.898-3.133.977-5.268 3.878-5.268 7.16v81.6c0 4.142 3.357 7.5 7.5 7.5s7.5-3.358 7.5-7.5v-57.541l41.504 60.1c2.313 3.339 6.126 4.772 9.715 3.65 3.687-1.152 6.068-4.671 6.068-9.037l-.764-78.998c-.039-4.117-3.389-7.427-7.497-7.427z"/><path d="m206.263 208.156c-3.928-1.307-8.176.822-9.481 4.753l-21.44 64.539-22.487-64.784c-1.357-3.914-5.635-5.983-9.544-4.626-3.913 1.358-5.984 5.632-4.626 9.545l27.97 80.578c1.323 3.725 4.856 6.216 8.806 6.216h.065c3.975-.028 7.504-2.576 8.798-6.387l26.693-80.352c1.305-3.931-.824-8.176-4.754-9.482z"/><path d="m258.079 207.624h-22.764c-1.993 0-3.904.793-5.312 2.205s-2.194 3.326-2.188 5.319v81.729c0 4.142 3.357 7.5 7.5 7.5s7.5-3.358 7.5-7.5v-28.052c5.167-.028 11.777-.06 15.264-.06 17.105 0 31.022-13.714 31.022-30.571s-13.916-30.57-31.022-30.57zm0 46.141c-3.471 0-9.99.031-15.147.059-.028-5.307-.078-25.674-.094-31.2h15.241c8.686 0 16.022 7.13 16.022 15.571s-7.336 15.57-16.022 15.57z"/></g></g></svg>